<svg width="15" height="15" viewBox="0 0 15 15" fill="none" xmlns="http://www.w3.org/2000/svg">
<path d="M7.5 2C4.46718 2 2 4.46718 2 7.5C2 10.5328 4.46718 13 7.5 13C10.5328 13 13 10.5328 13 7.5C13 4.46718 10.5328 2 7.5 2ZM10.1157 10.3448C10.0263 10.4342 9.90902 10.4792 9.79169 10.4792C9.67437 10.4792 9.55696 10.4342 9.46767 10.3448L7.17597 8.05322C7.08978 7.96754 7.04169 7.85105 7.04169 7.72919V4.75C7.04169 4.49655 7.24697 4.29169 7.5 4.29169C7.75303 4.29169 7.95831 4.49655 7.95831 4.75V7.53944L10.1157 9.69678C10.2949 9.87604 10.2949 10.1657 10.1157 10.3448Z" fill="black"/>
</svg>
