<svg width="15" height="15" viewBox="0 0 15 15" fill="none" xmlns="http://www.w3.org/2000/svg">
<path d="M12.1174 9.22024C11.4439 9.22024 10.7826 9.11491 10.156 8.90783C9.84896 8.8031 9.47149 8.89918 9.28409 9.09165L8.04725 10.0253C6.61287 9.25966 5.72931 8.37639 4.9741 6.95278L5.88031 5.74816C6.11575 5.51304 6.20019 5.16958 6.09902 4.84731C5.89105 4.21739 5.7854 3.55644 5.7854 2.88269C5.78543 2.39597 5.38946 2 4.90277 2H2.88266C2.39597 2 2 2.39597 2 2.88266C2 8.46144 6.53859 13 12.1174 13C12.6041 13 13 12.604 13 12.1173V10.1029C13 9.61621 12.604 9.22024 12.1174 9.22024Z" fill="black"/>
</svg>
