<svg version="1.1" id="Слой_1" xmlns="http://www.w3.org/2000/svg" xmlns:xlink="http://www.w3.org/1999/xlink" x="0px" y="0px"
     viewBox="0 0 40.6 35" style="enable-background:new 0 0 40.6 35;" xml:space="preserve">
                    <style type="text/css">
	                    .st0{fill:#77787B;}
                    </style>
  <g>
	                    <path class="st0" d="M23.1,6.5c0,3.5,2.8,6.4,6.4,6.4c3.5,0,6.4-2.8,6.4-6.4S33,0.1,29.5,0.1C25.9,0.1,23.1,2.9,23.1,6.5"/>
    <path class="st0" d="M4.7,6.5c0,3.5,2.8,6.4,6.4,6.4c3.5,0,6.4-2.8,6.4-6.4s-2.8-6.4-6.4-6.4C7.6,0.1,4.7,2.9,4.7,6.5"/>
    <path class="st0" d="M16.9,35l1.9-18.3l0,0l0,0c0.1-0.6,0.3-1.2,0.6-1.7c-0.4-0.3-0.9-0.5-1.5-0.5H4.3c-1.3,0-2.3,1-2.4,2.4L0,35.1
		                h16.9L16.9,35z"/>
    <path class="st0" d="M18.4,35.1h22.2l-1.9-18.3c-0.1-1.3-1.1-2.4-2.4-2.4H22.7c-1.3,0-2.3,1-2.4,2.4L18.4,35.1z"/>
                    </g>
                </svg>
