<svg width="15" height="15" viewBox="0 0 15 15" fill="none" xmlns="http://www.w3.org/2000/svg">
<path d="M7.78586 1C5.14707 1 3 3.14706 3 5.78613C3 6.4745 3.14089 7.13173 3.41856 7.73975C4.61515 10.3582 6.90937 13.1227 7.58417 13.9075C7.63472 13.9662 7.70843 14 7.78599 14C7.86356 14 7.93727 13.9662 7.98782 13.9075C8.66236 13.1228 10.9566 10.3585 12.1536 7.73975C12.4314 7.13173 12.5721 6.4745 12.5721 5.78613C12.5719 3.14706 10.4248 1 7.78586 1ZM7.78586 8.27205C6.41511 8.27205 5.2998 7.15675 5.2998 5.78599C5.2998 4.41511 6.41511 3.2998 7.78586 3.2998C9.15661 3.2998 10.2719 4.41511 10.2719 5.78599C10.2721 7.15675 9.15675 8.27205 7.78586 8.27205Z" fill="black"/>
</svg>
