<svg width="30" height="21" viewBox="0 0 30 21" fill="none" xmlns="http://www.w3.org/2000/svg">
<path d="M28.5414 0.917078C28.082 0.461234 27.3359 0.461234 26.8766 0.917078L10.2196 17.4633L2.89596 10.2435C2.43663 9.78763 1.69055 9.78763 1.23122 10.2435C0.771886 10.6993 0.771886 11.4373 1.23122 11.8919L9.39067 19.9348C9.84535 20.3848 10.6019 20.3848 11.0566 19.9348L28.5413 2.56554C29.0019 2.11086 29.0019 1.37176 28.5414 0.917078C28.082 0.461234 29.0019 1.37176 28.5414 0.917078Z" fill="white"/>
<path d="M28.5414 0.917078C28.082 0.461234 27.3359 0.461234 26.8766 0.917078L10.2196 17.4633L2.89596 10.2435C2.43663 9.78763 1.69055 9.78763 1.23122 10.2435C0.771886 10.6993 0.771886 11.4373 1.23122 11.8919L9.39067 19.9348C9.84535 20.3848 10.6019 20.3848 11.0566 19.9348L28.5413 2.56554C29.0019 2.11086 29.0019 1.37176 28.5414 0.917078ZM28.5414 0.917078C28.082 0.461234 29.0019 1.37176 28.5414 0.917078Z" stroke="white" stroke-width="0.5"/>
</svg>
