<svg version="1.1" id="Слой_1" xmlns="http://www.w3.org/2000/svg" xmlns:xlink="http://www.w3.org/1999/xlink" x="0px" y="0px" viewBox="0 0 58.5 18" enable-background="new 0 0 58.5 18" xml:space="preserve"> <g> <path fill="#797777" d="M11,9.2L9.4,1.6c-0.2-1.1-1.1-1.4-2-1.4H0l-0.1,0.3C5.6,1.9,9.4,5.2,11,9.2z"></path> <path fill="#797777" d="M16.4,0.3l-4.7,11.9l-0.5-1.8c-0.9-2.1-3.5-5.2-6.5-7.2l4.3,14.6h5l7.4-17.4H16.4z"></path> <polygon fill="#797777" points="20.4,17.8 25.1,17.8 28.1,0.3 23.3,0.3 	"></polygon> <path fill="#797777" d="M37.6,7.3C36,6.5,34.9,6,34.9,5.2c0-0.7,0.9-1.5,2.7-1.5c1.6,0,2.7,0.3,3.5,0.7l0.4,0.2l0.7-3.8
                                C41.2,0.4,39.8,0,38,0c-4.7,0-8,2.4-8,5.7c0,2.5,2.4,3.9,4.2,4.7c1.9,0.8,2.5,1.4,2.5,2.1c0,1.1-1.5,1.7-2.9,1.7
                                c-1.9,0-2.9-0.2-4.5-0.9l-0.6-0.2L28,17.1c1.1,0.5,3.2,0.9,5.3,0.9c5,0,8.3-2.4,8.3-6C41.6,10.1,40.4,8.6,37.6,7.3z"></path> <path fill="#797777" d="M54.6,0.3h-3.7c-1.1,0-2,0.3-2.5,1.5l-7,16h5c0,0,0.8-2.1,1-2.6c0.6,0,5.4,0,6.1,0c0.2,0.6,0.6,2.6,0.6,2.6
                                h4.4L54.6,0.3z M48.7,11.5c0.4-1,1.9-4.9,1.9-4.9c0,0.1,0.4-1,0.7-1.6l0.3,1.6c0,0,0.9,4.2,1.1,5.1L48.7,11.5L48.7,11.5L48.7,11.5z
                                "></path> </g> </svg>
